<?xml version="1.0" encoding="UTF-8" standalone="no"?>
<svg
   id="svg1"
   sodipodi:docname="error.svg"
   viewBox="0 0 60 60"
   sodipodi:version="0.32"
   _SVGFile__filename="oldscale/apps/gnome_question.svg"
   version="1.0"
   y="0"
   x="0"
   inkscape:version="1.1 (c4e8f9ed74, 2021-05-24)"
   xmlns:inkscape="http://www.inkscape.org/namespaces/inkscape"
   xmlns:sodipodi="http://sodipodi.sourceforge.net/DTD/sodipodi-0.dtd"
   xmlns="http://www.w3.org/2000/svg"
   xmlns:svg="http://www.w3.org/2000/svg"
   xmlns:rdf="http://www.w3.org/1999/02/22-rdf-syntax-ns#"
   xmlns:cc="http://creativecommons.org/ns#"
   xmlns:dc="http://purl.org/dc/elements/1.1/">
  <defs
     id="defs9" />
  <sodipodi:namedview
     id="base"
     bordercolor="#666666"
     inkscape:pageshadow="2"
     inkscape:window-y="32"
     pagecolor="#ffffff"
     inkscape:window-height="1048"
     inkscape:zoom="10.803476"
     inkscape:window-x="0"
     borderopacity="1.0"
     inkscape:current-layer="svg1"
     inkscape:cx="17.309244"
     inkscape:cy="23.973765"
     inkscape:window-width="1920"
     inkscape:pageopacity="0.0"
     inkscape:pagecheckerboard="0"
     showgrid="false"
     inkscape:window-maximized="1" />
  <path
     id="path1087"
     sodipodi:nodetypes="ccccc"
     style="stroke-linejoin:round;stroke:#ffffff;stroke-linecap:round;stroke-width:8.125;fill:none"
     d="m30 4.6871c-13.97 0-25.313 11.343-25.313 25.313 0.0001 13.97 11.343 25.313 25.313 25.313s25.313-11.343 25.313-25.313-11.343-25.313-25.313-25.313z" />
  <path
     id="path839"
     sodipodi:nodetypes="ccccc"
     style="fill-rule:evenodd;stroke:#000000;stroke-width:3.125;fill:#ffffff"
     d="m30 4.6871c-13.97 0-25.313 11.343-25.313 25.313 0.0001 13.97 11.343 25.313 25.313 25.313s25.313-11.343 25.313-25.313-11.343-25.313-25.313-25.313z" />
  <path
     id="path1710"
     sodipodi:nodetypes="zzzzzzzccccccccccccc"
     style="fill:#000000;fill-rule:evenodd;stroke:#000000;stroke-width:1.25;stroke-linejoin:round"
     d="m 29.515,10.465 c 1.706,0 4.095372,0.760552 4.76,2.179482 0.664628,1.41893 -0.878927,20.811525 -1.577,22.257518 -0.698073,1.445993 -1.534164,1.800304 -3.365,1.85 -1.830836,0.0497 -2.66177,-0.450509 -3.365,-1.85 C 25.26477,33.502509 24.185684,13.857505 25.024221,12.392105 25.862758,10.926705 27.809,10.465 29.515,10.465 Z m -0.243,30.369 c 0.757,0 1.463,0.204 2.123,0.606 0.66,0.402 1.16,0.931 1.546,1.607 0.402,0.66 0.606,1.38 0.606,2.153 0,0.788 -0.204,1.537 -0.606,2.213 -0.386,0.66 -0.901,1.16 -1.577,1.546 -0.66,0.386 -1.351,0.576 -2.092,0.576 -0.74,0 -1.446,-0.19 -2.122,-0.576 -0.66,-0.386 -1.205,-0.886 -1.607,-1.546 -0.386,-0.676 -0.576,-1.425 -0.576,-2.213 0,-0.773 0.19,-1.493 0.576,-2.153 0.402,-0.676 0.947,-1.205 1.607,-1.607 0.66,-0.402 1.366,-0.606 2.122,-0.606 z" />
  <metadata
     id="metadata6">
    <rdf:RDF>
      <cc:Work>
        <dc:format>image/svg+xml</dc:format>
        <dc:type
           rdf:resource="http://purl.org/dc/dcmitype/StillImage" />
        <cc:license
           rdf:resource="http://creativecommons.org/licenses/publicdomain/" />
        <dc:publisher>
          <cc:Agent
             rdf:about="http://openclipart.org/">
            <dc:title>Openclipart</dc:title>
          </cc:Agent>
        </dc:publisher>
      </cc:Work>
      <cc:License
         rdf:about="http://creativecommons.org/licenses/publicdomain/">
        <cc:permits
           rdf:resource="http://creativecommons.org/ns#Reproduction" />
        <cc:permits
           rdf:resource="http://creativecommons.org/ns#Distribution" />
        <cc:permits
           rdf:resource="http://creativecommons.org/ns#DerivativeWorks" />
      </cc:License>
    </rdf:RDF>
  </metadata>
</svg>
